<svg id="图层_1" data-name="图层 1" xmlns="http://www.w3.org/2000/svg" viewBox="0 0 99 99"><defs><style>.cls-1{fill:#00078b;opacity:0;}.cls-2{fill:#fff;}</style></defs><rect class="cls-1" y="-0.5" width="99" height="100"/><path class="cls-2" d="M67.73,10.67a4.25,4.25,0,0,1,3.17,1.19,13,13,0,0,1,1.19,1.58,9.64,9.64,0,0,1,2.37,3.17c.53,1.06.13,1.72-1.18,2a223.31,223.31,0,0,0-28.93,3.57q2.37.8,9.11,2.38a17.64,17.64,0,0,0-3.17,7.52,11.77,11.77,0,0,1-.39,2.78c-.27,1.32-.54,2.51-.8,3.57q17.84-3.18,24.57-6.35A32.32,32.32,0,0,0,87.14,38.8q-2.77,4-3.56,15.46Q82,87.16,80.41,88.33,74.07,87.54,63,78c-1.32-1.32-1.85-2.24-1.58-2.77s1.32-.66,3.17-.4a33.12,33.12,0,0,0,5.94.79,2.1,2.1,0,0,0,2.38-2.38q1.19-8.31,2-31.69c0-1.85-.79-2.64-2.38-2.38Q68.93,40,58.22,42a86,86,0,0,0-9.91,1.59,26.69,26.69,0,0,1-2.38,8.71q11.49,2,17.83,4.76c.8,1.06,1.32,4,1.59,8.72-.27,2.37-1.32,3-3.17,2a157.93,157.93,0,0,1-17-13.87,40.23,40.23,0,0,1-4.75,9.51q-4.76,7.13-11.5,7.13a18.13,18.13,0,0,1-7.13-2,75.15,75.15,0,0,1,.4,8.72q0,7.53-1.19,8.32-2.37-1.19-7.13-5.94a67.14,67.14,0,0,0,1.58-15.85q0-14.66-3.56-25.36A52.48,52.48,0,0,1,20.57,42a180.55,180.55,0,0,0,21.8-2.77,46.43,46.43,0,0,0,0-17,10.49,10.49,0,0,0-2.38.4A104.92,104.92,0,0,0,28.5,25.33a4.07,4.07,0,0,1-4-.4,39.52,39.52,0,0,1-4.76-4.75Q30.08,18.6,45.54,15q2.37-.39,6.73-1.19Q57.42,12.64,67.73,10.67Zm-46,57.85Q36,61.4,41.18,44.75q-9.12,1.19-17,2.37c-.27.27-1.32-.52-3.17-2.37Q21.77,55.84,21.76,68.52Z"/></svg>