<svg id="图层_1" data-name="图层 1" xmlns="http://www.w3.org/2000/svg" viewBox="0 0 99 99"><defs><style>.cls-1{fill:#00078b;opacity:0;}.cls-2{fill:#fff;}</style></defs><rect class="cls-1" y="-0.5" width="99" height="100"/><path class="cls-2" d="M42.28,49.94C41.5,51.5,41,55.15,40.72,60.87q0,3.91-.79,12.88a41.87,41.87,0,0,0-.39,4.3q1.56-.78,5.86-3.12l5.47-2.74q3.51-1.95,4.29-1.17.39.8-2.34,3.91Q40.33,86.26,35.25,91.72a16.58,16.58,0,0,0-5.47-9c2.86-1.29,4.43-3.9,4.69-7.8q.78-8.59.78-14.84a42.53,42.53,0,0,0-1.17-10.93H32.91a7.54,7.54,0,0,1-3.52-1.56q-3.9,17.57-9.76,29.67-5.07,8.19-12.88,8.2A18.25,18.25,0,0,1,.5,83.91Q20.8,69.47,25.88,31.2a35.55,35.55,0,0,0-2.34-18.35c1,.26,3,.65,5.85,1.17a23.82,23.82,0,0,0,3.13.39,137.44,137.44,0,0,0,23-4.3c1.56-.25,3.91-.78,7-1.56,2.86-.52,5.08-.91,6.64-1.17A2.71,2.71,0,0,1,72,8.16a13.35,13.35,0,0,1,3.12,3.51c.52.79.65,1.31.39,1.57A4.23,4.23,0,0,1,73.9,14q-7.43.39-26.94,3.51-10.55,2-14.05,2.34a197.29,197.29,0,0,1-2.74,24.21q10.15-1.95,19.92-4.29,13.26-3.12,25-4.69a3.28,3.28,0,0,1,3.13.78c.52.78,1.17,1.7,2,2.74a4.23,4.23,0,0,0,.78,1.56q.78,1.56-1.17,1.56A211.79,211.79,0,0,0,46.18,46,132.18,132.18,0,0,1,59.07,58.14,49.69,49.69,0,0,0,72,44.08a32.78,32.78,0,0,0,8.59,6.25,21.55,21.55,0,0,0-6.64,3.12,69.22,69.22,0,0,1-12.49,6.64Q73.13,71.41,79.76,73q12.09,3.91,17.18,7c1,.53,1.56,1.17,1.56,2-.26.53-.92.78-2,.78q-16,1.56-24.6-1.56Q68.82,80,57.5,64.77a14.38,14.38,0,0,1-2-2.73q-9.37-11.31-14-14.83a6.42,6.42,0,0,0-1.57.39,13,13,0,0,0-3.12.78A36.84,36.84,0,0,0,42.28,49.94ZM66.87,23a22.47,22.47,0,0,1,3.52,3.51q.78.79.39,1.17c0,.27-.26.39-.78.39-1.56.27-3.65.66-6.25,1.18q-6.26,1.17-9,1.95-2.73.39-7.42,1.17c-2.34.52-3.65.78-3.9.78-2.34-.26-4.69-1.69-7-4.3A143.48,143.48,0,0,0,55.55,25a53.68,53.68,0,0,1,6.25-1.56,12.09,12.09,0,0,0,2.73-.78A2.58,2.58,0,0,1,66.87,23Z"/></svg>