<svg id="图层_1" data-name="图层 1" xmlns="http://www.w3.org/2000/svg" viewBox="0 0 99 99"><defs><style>.cls-1{fill:#00078b;opacity:0;}.cls-2{fill:#fff;}</style></defs><rect class="cls-1" y="-0.5" width="99" height="100"/><path class="cls-2" d="M87.9,69.11a3,3,0,0,1,3.17,1.19,35,35,0,0,1,3.57,6c.26,1.06-.27,1.72-1.58,2q-23.78-2.78-80,5.94a5.42,5.42,0,0,1-4-1.19A17.46,17.46,0,0,1,4.3,77.83q7.52,0,28.92-2.77.8-4.75,2.38-13.47c.53-4,.92-6.87,1.19-8.72-4,.79-6.34,1.06-7.14.79-2.37-.26-4.89-1.84-7.52-4.75a126.75,126.75,0,0,0,15.45-2.38q1.58-12.68,0-19-5.55.79-7.13,1.19-2.77-.79-7.13-5.95Q51,21.17,62.15,14.83a25.86,25.86,0,0,0,16.64,6.34C76.15,23.29,74,27.9,72.45,35q-2,11.49-5.15,36.06A153.68,153.68,0,0,1,87.9,69.11ZM56.6,43a34.08,34.08,0,0,1,3.57,4c.79,1.06.52,1.73-.8,2q-2.77.39-8.71,1.58-4.75.8-6.74,1.19-2,11.88-3.57,22.59a23.07,23.07,0,0,0,3.57-.4q9.9-1.19,15.45-1.59c.26-2.63.8-6.73,1.59-12.28q3.57-27.34,4-35.66c0-1.32-.53-1.85-1.58-1.59q-2.39.41-7.93,1.59L42.34,26.72a25.89,25.89,0,0,0,6.33.79q-2.37,3.57-4,17.43l4.76-1.19c1.84-.52,3.3-.92,4.36-1.18A8.9,8.9,0,0,1,56.6,43Z"/></svg>