<svg id="图层_1" data-name="图层 1" xmlns="http://www.w3.org/2000/svg" viewBox="0 0 99 99"><defs><style>.cls-1{fill:#00078b;opacity:0;}.cls-2{fill:#fff;}</style></defs><rect class="cls-1" y="-0.5" width="99" height="100"/><path class="cls-2" d="M83.36,12.68a4.22,4.22,0,0,1,3.57,1.19c1,1.59,2,3,2.77,4.36a2,2,0,0,1,.4,2,1.59,1.59,0,0,1-1.58.79,326.71,326.71,0,0,0-39.63,2.38A36.33,36.33,0,0,0,58.8,25q-2,4.37-2,19.41V57.06q.39,10.32.39,14.66c.26,10-.26,14.92-1.58,14.67q-8.73-2-19.42-10.7c-.79-.8-1.06-1.32-.79-1.59.26-.53.92-.79,2-.79a11,11,0,0,1,2.38.39,46.89,46.89,0,0,0,5.94.4c2.38,0,3.43-.53,3.17-1.58q1.19-7.53.4-35.27,0-9.1-2.38-13.47a188.92,188.92,0,0,0-28.13,4.75,6.21,6.21,0,0,1-3.17,0,53,53,0,0,1-5.16-3.17c-.26-.26-.53-.52-.79-.79C8.87,24,8.6,23.52,8.87,23c0-.26.53-.52,1.58-.79a302.62,302.62,0,0,0,33.29-4.36Q67.91,14.28,83.36,12.68Z"/></svg>