<svg id="图层_1" data-name="图层 1" xmlns="http://www.w3.org/2000/svg" viewBox="0 0 99 99"><defs><style>.cls-1{fill:#00078b;opacity:0;}.cls-2{fill:#fff;}</style></defs><rect class="cls-1" y="-0.5" width="99" height="100"/><path class="cls-2" d="M89.1,45.12a15.27,15.27,0,0,1,2.78,3.57c.26,1.06.12,1.58-.4,1.58a130,130,0,0,0-19.42.8,30.09,30.09,0,0,0-1.19,3.17,31,31,0,0,0-1.58,4.35,31.73,31.73,0,0,1,4,4.36q-6.34,0-22.19,2.38,2.77,2,8.32,6.34Q69.69,80,75.63,82c1.58.54,3.83,1.46,6.73,2.78a61.5,61.5,0,0,1,11.5,4.36q2.76,1.19,2.37,2.37c-.26.8-1.45,1.32-3.56,1.59q-12.69,0-17-.4a13.85,13.85,0,0,1-11.1-5.94,60,60,0,0,1-4-4.76,88,88,0,0,0-10.7-12.68q-4.36,11.89-12.28,19-8.73,9.12-17.44,1.59Q37.58,84,43.93,66.52a41.23,41.23,0,0,1-4.76.79A9,9,0,0,1,36,68.1a11.45,11.45,0,0,1-4.36-4.35c1.85-.26,5-.8,9.51-1.59a41.23,41.23,0,0,0,4.76-.79,28.2,28.2,0,0,0,1.58-7.13,67.54,67.54,0,0,1-8.32,1.58q-4.37.8-5.94,1.19a8.57,8.57,0,0,1-3.57-3.17q-4.36,19-11.49,29.72-5.94,8.72-15.45,4.36Q20.15,76.43,25.31,43.54q2-14.65-1.19-21.8a30.38,30.38,0,0,1,8.32,3.17q4.35-.39,18.22-3.56,14.66-2.78,21.4-4a4.93,4.93,0,0,1,2.78.8,9.58,9.58,0,0,1,1.58,2.37,4.36,4.36,0,0,0,.79,1.19c.53.54.8.93.8,1.19a4.25,4.25,0,0,1-1.59.79q-15.45,1.59-43.59,6a140.69,140.69,0,0,1-3.17,22.59q9.12-.8,18.63-2.38a6.64,6.64,0,0,0,.39-2,5.58,5.58,0,0,0,.4-2.38,11.1,11.1,0,0,0,.4-2.38l-8.33,2.38a6.58,6.58,0,0,1-2,.39,12.24,12.24,0,0,0-1.58-1.18,21.88,21.88,0,0,1-3.17-3.57q5.55-.39,15.45-2c0-4.76-.66-8.45-2-11.1a23,23,0,0,0,10.3,2A36.64,36.64,0,0,0,55.82,38a25.27,25.27,0,0,1,4-.79q2.76-.8,7.13-2.38a25.4,25.4,0,0,0,12.28,5.94,12.09,12.09,0,0,0-4,4.76,55.43,55.43,0,0,1,9.12-1.19,6.64,6.64,0,0,1,2-.4C87.38,43.41,88.31,43.8,89.1,45.12ZM47.1,5.89A32.51,32.51,0,0,1,57.8,9.06c1.05.8,1.19,2.91.39,6.34-.26,1.33-.53,2-.79,2-.53.27-1.32,0-2.38-.79a49.19,49.19,0,0,1-9.51-8.72c-.79-1-1.06-1.71-.79-2S45.77,5.63,47.1,5.89Zm17.43,52.7q.8-3.56,1.19-6.73a33.12,33.12,0,0,0-5.94.79c-2.64.27-4.63.53-6,.79a27.76,27.76,0,0,1-1.58,6.74c1.58-.26,3.83-.53,6.74-.79A27.34,27.34,0,0,1,64.53,58.59Zm2-18.22c-1.32.26-3,.53-5.15.79l-5.94,1.19v.79a17.09,17.09,0,0,1-.4,2.77,6.91,6.91,0,0,1-.39,2.78q5.94-.8,11.88-2C67,44.6,67.44,43,67.7,42,67.7,40.63,67.31,40.11,66.51,40.37Z"/></svg>