<svg id="图层_1" data-name="图层 1" xmlns="http://www.w3.org/2000/svg" viewBox="0 0 99 99"><defs><style>.cls-1{fill:#00078b;opacity:0;}.cls-2{fill:#fff;}</style></defs><rect class="cls-1" y="-0.5" width="99" height="100"/><path class="cls-2" d="M34,15.13a34.25,34.25,0,0,0,9.51,5.55q-2,1.59-4.36,6.73a4.6,4.6,0,0,1-.79,1.19Q28.46,54,16.58,63.87,7.07,70.21.73,64.66,15,59.52,26.09,42.08A90,90,0,0,1,15,34.15c-.79-.79-1.06-1.19-.79-1.19,0-.26.52-.39,1.58-.39,5.28.53,8.45,1,9.51,1.58q1.18,1.18,2,5.15,5.94-11.08,7.13-18.23a13.68,13.68,0,0,1-2,.8,42,42,0,0,0-6.73,2.37c-1.06.8-2,.8-2.78,0a19.86,19.86,0,0,1-3.56-2.37l-.79-.8c0-.26.39-.39,1.18-.39Q30.06,19.1,34,15.13Zm32.09,42.8c.8-.26,1.72.13,2.78,1.18a18.72,18.72,0,0,1,2.77,3.57,3.17,3.17,0,0,1,.4,1.19H70.87q-10.7.8-25.36,3.17-4,17.44-14.66,23-8.33,5.15-15.45.4,19.39-6.35,23.77-22.19-2,.39-6.34,1.58a53.49,53.49,0,0,0-6.74,1.59,4.26,4.26,0,0,1-4-.4c-.53-.52-1.19-1.19-2-2a17.68,17.68,0,0,0-2.38-1.58q11.9-2,23-4.36a24.46,24.46,0,0,0-.39-9.91,28.61,28.61,0,0,0-3.57,1.19,5,5,0,0,1-4-.79,14.37,14.37,0,0,1-3.57-2.78,106.49,106.49,0,0,0,15.06-4q7.14-2,10.3-2.77c1.32-.53,2.24-.4,2.78.39a11.07,11.07,0,0,1,2.77,3.17,1.31,1.31,0,0,1,.4,1.59c0,.26-.27.39-.79.39a112,112,0,0,0-17.84,3.17,16.6,16.6,0,0,0,7.53,1.59,28.07,28.07,0,0,0-2.38,5.94,3.16,3.16,0,0,0-.39,1.19Q57.4,59.12,66.11,57.93ZM61.36,6.81c.26,0,.53.27.79.79a43.36,43.36,0,0,0,7.93,5.55A96.54,96.54,0,0,0,55,23.06a70.66,70.66,0,0,0,6.34,7.52,44,44,0,0,0,9.11-8.32c1.59-2.11,2.38-3.82,2.38-5.15.53-.79.92-.92,1.19-.39A59.1,59.1,0,0,0,82,23.45c-1,.53-3.17,1.72-6.34,3.57a103.29,103.29,0,0,0-11.88,6.34A76.53,76.53,0,0,0,81.17,46a108.85,108.85,0,0,1,15.06,9.11c1.59,1.06,2.24,2,2,2.78,0,.53-.93.66-2.77.39a104.93,104.93,0,0,1-13.08-.79,13,13,0,0,1-8.32-4q-4-4-13.47-15.46-12.28-15-16.65-18.22,0-1.59,4.76-2,1.18,0,4,2.78A53.6,53.6,0,0,0,59,12.36a10.59,10.59,0,0,0,1.59-5.15C60.57,6.15,60.83,6,61.36,6.81ZM50.27,71q13.06,4.75,19.81,9.51,1.19,1.59,1.19,9.12c0,1.84-.27,2.77-.8,2.77-.26.26-1.19-.27-2.77-1.59A110.38,110.38,0,0,1,49.08,72.59c-.8-.8-1.06-1.32-.8-1.59C48.28,70.74,48.94,70.74,50.27,71Z"/></svg>