<svg id="图层_1" data-name="图层 1" xmlns="http://www.w3.org/2000/svg" viewBox="0 0 99 99"><defs><style>.cls-1{fill:#00078b;opacity:0;}.cls-2{fill:#fff;}</style></defs><rect class="cls-1" y="-0.5" width="99" height="100"/><path class="cls-2" d="M58.15,34a25.22,25.22,0,0,0,9.12,7.52,19.12,19.12,0,0,0-7.14,6.74A135.37,135.37,0,0,1,26.45,80.7q-11.1,6.75-18.23-.39,17.84-4,37.25-24.17-13.47,2-19.41,5.15A13.14,13.14,0,0,0,22.89,53q10.7-2.78,18.62-20.21-16.63,2.77-23.38,4.75c-.79.27-2.91-1-6.34-4a11.19,11.19,0,0,1-1.58-1.19c-.8-.79-.54-1.32.79-1.58h.39q6.74-.39,30.91-4,28.92-3.94,41.21-5.15c1.59-.52,2.64-.13,3.17,1.19a23.5,23.5,0,0,1,3.57,4.36,2,2,0,0,1,.4,2c-.27.53-.8.66-1.59.4a287.83,287.83,0,0,0-44,2.77,48.8,48.8,0,0,0,6.73,3.17q-3.16,1.59-9.11,8.32a85,85,0,0,1-9.11,8.72L49.83,51,51,49.8a4.32,4.32,0,0,1,.79-1.59Q57.77,39.88,58.15,34ZM65.29,49.8a33.69,33.69,0,0,0,9.11,7.13,31.59,31.59,0,0,0-9.51,7.92A66.43,66.43,0,0,1,59.34,72q11.89,4.37,17.44,8.71c.79,1.06.65,4-.4,8.72a2.86,2.86,0,0,1-1.19,2,8.37,8.37,0,0,1-2.38-1.19A56.42,56.42,0,0,1,57,74.36,76.79,76.79,0,0,1,43.89,86.25q-9.51,7.92-17.83.79,17.43-4.76,33.28-25.75Q64.1,54.55,65.29,49.8Zm-24.57-42a72.38,72.38,0,0,1,14.26,4c.53.26.8,2.51.8,6.73a7,7,0,0,1-.8,2.78c-.26.26-1.19,0-2.77-.8Q47.46,18.1,39.53,9.78c-.79-1.06-1.06-1.72-.79-2S39.66,7.53,40.72,7.79Z"/></svg>