<svg id="图层_1" data-name="图层 1" xmlns="http://www.w3.org/2000/svg" viewBox="0 0 99 99"><defs><style>.cls-1{fill:#00078b;opacity:0;}.cls-2{fill:#fff;}</style></defs><rect class="cls-1" y="-0.5" width="99" height="100"/><path class="cls-2" d="M15.85,37.51a78.22,78.22,0,0,1,7.93,4.76Q42,39.51,49.14,38.7q.39-3.56,1.59-9.11,1.19-8.71.79-7.93-.41-.37-19,2.38Q23.38,25.63,19,26.42a18.64,18.64,0,0,1-5.54-7.13q11.49,1.59,26.94-2,7.53-1.2,10.7-4.36,5.15,4.76,17,7.13-5.94,3.57-11.89,18.23a17.38,17.38,0,0,1,4,5.15Q44,45.05,22.59,47a113.63,113.63,0,0,0-2.38,17.43Q17.84,79.13,33.29,79.12q25.35,0,38.83-4,1.59-.39,3.17-9.91c.53-2.63.93-4.62,1.19-5.94.53-2.64,1-4,1.59-4s1.05,1.19,1.58,3.56A150.34,150.34,0,0,1,85.2,79.52c.79,2.37.13,3.7-2,4a228.93,228.93,0,0,1-25,2.38q-15.45.39-28.13,0-17.45-.39-15.85-19.42a42.35,42.35,0,0,1,.4-5.15Q16.25,43.46,15.85,37.51Z"/></svg>