<svg id="图层_1" data-name="图层 1" xmlns="http://www.w3.org/2000/svg" viewBox="0 0 99 99"><defs><style>.cls-1{fill:#00078b;opacity:0;}.cls-2{fill:#fff;}</style></defs><rect class="cls-1" y="-0.5" width="99" height="100"/><path class="cls-2" d="M44.55,67.33V48.7q-2.38.4-7.14.79c-3.7.54-6.47.93-8.32,1.19v.4c.26,2.38,0,3.83-.79,4.36q-2.78-1.19-6.74-5.95-2-26.94-8.32-35.66,5.55.4,11.1,1.19Q55.24,11.86,71.1,6.3a24.53,24.53,0,0,0,14.66,9.12q-5.16,2.78-9.51,25-2,10.31-3.57,11.49c-1.32-.26-3.31-2-5.94-5.15a33.22,33.22,0,0,0-4,.4q-7.53.8-11.88,1.19,0,16.63.39,22.58V80.4q.39,12.67,0,12.29-4-1.59-9.11-7.53Q44.15,82,44.55,67.33ZM30.28,30.47c1.85,0,5.95-.65,12.29-2a6.46,6.46,0,0,1,1.58-.39,33.9,33.9,0,0,0-1.58-10.7Q34.64,19,27.51,19.77L24.73,17.4q1.2,7.13,4,28.92Q35.43,45.14,44.55,44V33.25a33.11,33.11,0,0,0-4.36.39,26.15,26.15,0,0,1-4.36.4Q33.05,34,30.28,30.47ZM52.87,18.59a29.78,29.78,0,0,0-1.59,7.92l5.95-1.19A16.88,16.88,0,0,1,60,24.93a2.27,2.27,0,0,1,2.38.79,13.06,13.06,0,0,1,2,3.57l.4.39q-3.57.8-13.87,2.38a53.35,53.35,0,0,0-.4,6.74v4.35a17.32,17.32,0,0,0,3.17-.39c4-.53,8.19-1,12.68-1.59l.79.8.4-.4Q69.9,30.49,71.89,15c.26-1.32-.27-1.84-1.59-1.58q-4.36.39-15,2Q48.91,16.61,45.74,17a26.19,26.19,0,0,0,6.34,1.59Z"/></svg>