<svg id="图层_1" data-name="图层 1" xmlns="http://www.w3.org/2000/svg" viewBox="0 0 99 99"><defs><style>.cls-1{fill:#00078b;opacity:0;}.cls-2{fill:#fff;}</style></defs><rect class="cls-1" y="-0.5" width="99" height="100"/><path class="cls-2" d="M33.65,22.49a38.85,38.85,0,0,0,11.49,2q-2.37,5.16-2.77,15.45.39,24.58-8.32,39.63-7.53,13.86-21,7.92Q33.26,78,35.63,51,23.75,59,17,66.47a11.84,11.84,0,0,0-7.14-8.71Q17,53,14.63,32.4a29.64,29.64,0,0,0-4-12.68c1.84.26,4.49.79,7.92,1.58a16.08,16.08,0,0,0,2.78.4Q34.43,13.37,34.44,3.87A40.84,40.84,0,0,0,47.52,11q-1.59.79-7.13,4.36Q27.7,23.28,21.76,25.66V52.6L36,47.45V40.72Q36.81,27.64,33.65,22.49ZM74.07,21.3c-7.13,1.59-12,2.64-14.66,3.17q0,46.37-.4,54.68Q59,96.58,58.22,95a28.62,28.62,0,0,1-9.12-7.92q3.57-8.72,4-37.25-.41-26.53-4-32.89a87.35,87.35,0,0,1,8.72,2.78,3.06,3.06,0,0,0,1.19.39q11.49-2.37,15.45-6.34a25.91,25.91,0,0,0,14.67,5.15q-4,3.57-4.76,11.1-.8,3.57-1.59,16.24Q81.6,63.71,80.41,64.1q-7.93-2-17.83-11.1a5.56,5.56,0,0,1-1.19-2c.26-.53,1-.66,2.37-.4q5.16.41,7.93.4c1.59-.26,2.24-.79,2-1.59q1.58-15.45,2-26.94c0-.79-.13-1.19-.39-1.19C75.26,21,74.86,21,74.07,21.3Z"/></svg>