<svg id="图层_1" data-name="图层 1" xmlns="http://www.w3.org/2000/svg" viewBox="0 0 99 99"><defs><style>.cls-1{fill:#00078b;opacity:0;}.cls-2{fill:#fff;}</style></defs><rect class="cls-1" y="-0.5" width="99" height="100"/><path class="cls-2" d="M74.27,75.06a3.22,3.22,0,0,1,3.17,1.58,21.14,21.14,0,0,1,4,6.34c.79,1.59.52,2.38-.79,2.38a228.8,228.8,0,0,0-55.08,3.57A7.13,7.13,0,0,1,22,87.74a56.61,56.61,0,0,1-4.36-4c-.53-1.06-.13-1.59,1.19-1.59q6.33,0,25.36-2.77,0-14.65.4-23a257.69,257.69,0,0,0-29.33,5.16Q13.65,62,7.7,56c-.8-.79-1.19-1.32-1.19-1.59a3.16,3.16,0,0,1,2-.39q8.71-.8,29.32-4,4.35-.39,6.74-.79V47.72q0-11.49-2.78-17.83c-1.06.26-2.51.66-4.36,1.18-2.64.54-4.49.93-5.54,1.19A13,13,0,0,1,20,26.72q32.1-5.14,44.38-16.65,3.57,6.75,8.32,9.91A35.52,35.52,0,0,0,60,23.55q-3.57,1.57-13.08,4.75a74.23,74.23,0,0,0,7.53.4,96.19,96.19,0,0,0-2.37,16.24v3.17q15.84-2,32.49-4.36a3.14,3.14,0,0,1,3.56,2,39.93,39.93,0,0,1,3.57,5.94,9,9,0,0,1,.79,2.77,3.09,3.09,0,0,1-2,.4q-16.64-1.58-38.83.79V78.23a112.49,112.49,0,0,1,11.89-1.59Q70.69,75.45,74.27,75.06Z"/></svg>