<svg id="图层_1" data-name="图层 1" xmlns="http://www.w3.org/2000/svg" viewBox="0 0 99 99"><defs><style>.cls-1{fill:#00078b;opacity:0;}.cls-2{fill:#fff;}</style></defs><rect class="cls-1" y="-0.5" width="99" height="100"/><path class="cls-2" d="M40.78,2.54A40,40,0,0,0,53.46,5.32q-2.77,6.33-3.17,20.21,18.23-3.18,19.81-4.76A31.06,31.06,0,0,0,84,29.49Q80,33,77.63,42.17q-5.55,21-6.34,21-2.37-.39-5.94-4.76A107.74,107.74,0,0,0,50.29,59.6v4.76q0,32.49-1.58,32.09-2.39,0-8.72-8.71Q43.56,83,44,60q-4,.39-11.49,1.19a24.11,24.11,0,0,1-3.56.39v1.19q.78,3.57,0,4a19.17,19.17,0,0,1-6.74-5.54Q20.17,35.44,15,27.9c3.43.27,6.86.66,10.3,1.19a23.76,23.76,0,0,0,3.17-.4c6.07-.79,11.22-1.44,15.45-2Q44,8.89,40.78,2.54ZM29.69,43Q37.61,41.78,44,40.58V31.86q-8.33,1.2-15.45,2.78l-3.17-2.78a21.51,21.51,0,0,0,.79,4.76Q27.7,50.09,28.5,56.83q3.16-.39,10.7-1.19A43.73,43.73,0,0,0,44,54.85V45.73a17.49,17.49,0,0,0-3.17.4c-3.43.27-5.55.4-6.34.4A11.24,11.24,0,0,1,29.69,43ZM68.92,28.3q-3.18.39-10.7,1.19-5.16.8-7.93,1.19v8.71A53.79,53.79,0,0,1,57,37.81h1.19A2.76,2.76,0,0,1,61,38.6a12.35,12.35,0,0,1,1.19,1.59,15.52,15.52,0,0,0,1.59,2.37q-6,1.2-13.48,2v9.51q4-.78,12.29-1.58h2c.52,0,.92.4,1.19,1.19A167.13,167.13,0,0,0,70.1,29.49C70.36,28.43,70,28,68.92,28.3Z"/></svg>