<svg id="图层_1" data-name="图层 1" xmlns="http://www.w3.org/2000/svg" viewBox="0 0 99 99"><defs><style>.cls-1{fill:#00078b;opacity:0;}.cls-2{fill:#fff;}</style></defs><rect class="cls-1" y="-0.5" width="99" height="100"/><path class="cls-2" d="M12.37,14.73q7.14,3.18,10.3,4.76v.39q19.41-1.57,25-5.94,5.94,4.76,16.24,6.73-6.33,4-11.49,17.84a17.64,17.64,0,0,1,4.36,5.54q-9.12.41-36.85,4V49.2a128.76,128.76,0,0,0-.79,14.27Q18.31,76.94,33,77.73q25,0,40-3.56,2.37-.39,4.36-16.25c.26-2.11.79-3.17,1.58-3.17.53-.26,1,.66,1.59,2.78q3.16,9.12,5.94,20.6c.53,2.64-.27,4.1-2.38,4.36a233.17,233.17,0,0,1-25.75,2.38q-15.86.39-28.53,0-17.44-.39-17-20.61.78-15.84,1.58-33.68A45.08,45.08,0,0,0,12.37,14.73Zm9.91,7.53c-.27,2.12-.66,5.94-1.19,11.49q-.4,5.55-.79,8.72,10.69-1.19,25-3.57,3.16-16.24,2.38-17-.41-1.18-21.8,3.57A13.26,13.26,0,0,1,22.28,22.26Z"/></svg>