<svg id="图层_1" data-name="图层 1" xmlns="http://www.w3.org/2000/svg" viewBox="0 0 99 99"><defs><style>.cls-1{fill:#00078b;opacity:0;}.cls-2{fill:#fff;}</style></defs><rect class="cls-1" y="-0.5" width="99" height="100"/><path class="cls-2" d="M60.76,23.32a23.11,23.11,0,0,1,3.57,3.56c.79.79.65,1.46-.4,2Q57.19,30.06,47.29,32V43.52a180.14,180.14,0,0,1,22.19-4,3.31,3.31,0,0,1,3.17.79,8.33,8.33,0,0,0,1.58,2,8.42,8.42,0,0,1,1.59,2c.79,1.06.52,1.85-.79,2.38q-11.9.79-27.35,3.17,2.77,2,9.91,7.92Q71.45,69.67,76.22,72.05,87.7,77.21,94.05,82c1.32,1.06,1.84,1.85,1.58,2.38,0,.53-.93.79-2.77.79q-13.48.8-19.42-1.58Q69.08,82.35,56,65.71A116.87,116.87,0,0,0,47.29,55v9.9Q47.29,97,46.1,99q-3.18-.8-8.72-8.72Q40.95,82,41.34,57q-11.08,17-21,26.15-7.12,6.34-17,2Q21.93,76,38.57,51.05q-4.76,1.2-13.47,2.78Q20.35,55,18.36,55.41c-1.06.54-2.12.27-3.17-.79a11.06,11.06,0,0,1-2.38-2,11.4,11.4,0,0,0-2.37-2q6.74-1.19,20.6-4c4.49-.8,7.93-1.45,10.3-2V33.22c-6.34,1.33-10.3,2-11.88,2a14.9,14.9,0,0,1-5.95-4.36q4.36,0,17.44-3.56-.41-13.86-3.17-19.81A47.69,47.69,0,0,0,50.06,9.05a52.83,52.83,0,0,0-2.38,16.64,49.45,49.45,0,0,0,5.55-1.58c2.64-.53,4.49-.92,5.55-1.19A4.47,4.47,0,0,1,60.76,23.32Z"/></svg>