<svg id="图层_1" data-name="图层 1" xmlns="http://www.w3.org/2000/svg" viewBox="0 0 99 99"><defs><style>.cls-1{fill:#00078b;opacity:0;}.cls-2{fill:#fff;}</style></defs><rect class="cls-1" y="-0.5" width="99" height="100"/><path class="cls-2" d="M69.66,41a28.93,28.93,0,0,0,9.91,6.34Q76.8,49,72.43,56.08,70.06,60.45,67.68,64A54.45,54.45,0,0,0,83.93,79.85c1,1.33,2,1.19,2.77-.39.79-2.38,2-5.41,3.57-9.12.26-1.58.65-2.37,1.18-2.37.53.26.93,1,1.19,2.37a126.26,126.26,0,0,1,.8,19c0,1.85-.4,3-1.19,3.57s-2,.4-3.57-.4A64.53,64.53,0,0,1,63.32,70.34a112.74,112.74,0,0,1-9.51,11.49Q46.28,88.57,36.38,83a57.15,57.15,0,0,0,23-19A161.26,161.26,0,0,1,47.87,37.06,117.55,117.55,0,0,1,33.2,40.23h-.79q-.79,29.33-9.51,41.21Q16.56,90.16,5.47,85.8q19-11.49,19.81-38A44.39,44.39,0,0,0,23.7,32.7a42.53,42.53,0,0,0,4.75,1.58,33.73,33.73,0,0,1,3.17,1.19q3.16-.78,11.49-3.17a25.48,25.48,0,0,0,3.17-.79,2.24,2.24,0,0,1-.4-1.58Q41.14,13.69,35.58,5.75a35.41,35.41,0,0,0,13.87.4q-.8,7.53,3.17,22.59v.79c1.59-.53,3.83-1.19,6.74-2l8.32-2.38a4.29,4.29,0,0,1,3.17,1.19l.79.79C73,28.48,73.75,29.27,74,29.53c.53.53.66.93.4,1.19,0,.26-.27.39-.8.39q-2,.41-6.34,1.59-8.72,2-12.68,3.17a107.38,107.38,0,0,0,9.12,21.79,17.39,17.39,0,0,1,1.19-2,9.41,9.41,0,0,1,1.18-2Q70.05,45.78,69.66,41ZM66.09,10.11q10.3.81,13.48,2.78,1.19.79.39,7.53C80,22,79.3,22.53,78,22A59,59,0,0,1,64.91,11.7a1.28,1.28,0,0,1-.4-1.59C64.51,9.85,65,9.85,66.09,10.11Z"/></svg>