<svg id="图层_1" data-name="图层 1" xmlns="http://www.w3.org/2000/svg" viewBox="0 0 99 99"><defs><style>.cls-1{fill:#00078b;opacity:0;}.cls-2{fill:#fff;}</style></defs><rect class="cls-1" y="-0.5" width="99" height="100"/><path class="cls-2" d="M55.3,30.48q-2.38,4.36-2.38,13.87Q71.54,41.19,85.81,40a3.79,3.79,0,0,1,3.56,1.19,42.82,42.82,0,0,0,2.78,4.36,7.29,7.29,0,0,1,.79,2c-.27.53-.93.79-2,.79q-14.26-.39-38,2.38,0,11.1.39,21.79V90.31c0,2.91-.13,4.36-.39,4.36q-3.57-1.19-10.3-7.92c2.11-2.65,3.3-8.45,3.56-17.44V51.48q-16.24,2.39-31.3,5.15c-1.33.27-4-1.19-7.93-4.36-.79-.79-1.06-1.32-.79-1.58a3.14,3.14,0,0,1,2-.4q13.08-1.18,38-5.15V44q0-10.7-1.58-14.66a17.39,17.39,0,0,0-3.17.4,13.29,13.29,0,0,1-3.17.39c-.54,0-1.85-.79-4-2.37a25.53,25.53,0,0,1-4,6.34q-5.94,8.72-15.06,3.56Q24.78,32.47,32.71,17q4-7.53,3.57-12.68,5.53,4.37,9.9,5.15-3.18,2-5.94,8.32c-.27.53-.79,1.46-1.59,2.77a25.75,25.75,0,0,0-2,4q5.14-.79,17-3.57,9.51-2,13.87-2.77a3.2,3.2,0,0,1,2,.39A16.93,16.93,0,0,1,72.73,23c.53.53.66.79.4.79,0,.27-.27.54-.8.8q-5.94,1.18-18.62,3.17c-3.44.53-5.94.93-7.53,1.19A43.33,43.33,0,0,0,55.3,30.48Z"/></svg>