<svg id="图层_1" data-name="图层 1" xmlns="http://www.w3.org/2000/svg" viewBox="0 0 99 99"><defs><style>.cls-1{fill:#00078b;opacity:0;}.cls-2{fill:#fff;}</style></defs><rect class="cls-1" y="-0.5" width="99" height="100"/><path class="cls-2" d="M71.28,54c.8-.26,1.72.13,2.78,1.19a33.69,33.69,0,0,1,3.56,4,3.59,3.59,0,0,1,.4,1.58,1.6,1.6,0,0,1-1.19.4q-5.94,0-22.19,1.19a16.26,16.26,0,0,1-2.77.4V80.59q.78,15.84,0,15-4.36-1.19-8.72-5.94a32.65,32.65,0,0,0,2.38-12.28q.39-7.14.39-13.87-10.7,1.19-20.21,3.17a3.85,3.85,0,0,1-2.77-.79,21.75,21.75,0,0,1-4-4.36q5.54-.39,23.77-3.17a17.49,17.49,0,0,1,3.17-.4V56.42a59.37,59.37,0,0,0-2.37-11.89Q28.09,46.9,15,50.08q-1.59.39-7.14-4c-.26-.26-.53-.52-.79-.79-1.32-.79-1.19-1.32.4-1.58h.39q13.47-.8,43.2-5.55,6.33-9.9,7.13-17.83a37.22,37.22,0,0,0,10.3,4.75q-2.39,1.18-6.34,5.95-3.57,4-5.94,6.34,4.76-.8,14.66-2,9.51-1.57,14.26-2c1.85-.26,3,.14,3.57,1.19a20,20,0,0,1,3.57,5.15,2,2,0,0,1,.39,2c0,.27-.53.4-1.58.4a230.24,230.24,0,0,0-45.57,2.38,34.94,34.94,0,0,0,7.92,1.58,23.38,23.38,0,0,0-1.58,10.31v.39q4.76-.39,13.87-2A45.1,45.1,0,0,0,71.28,54ZM69.7,13.62A9.89,9.89,0,0,1,72.08,16l1.18,1.19.4.79a1.12,1.12,0,0,1-.79.4q-13.48,1.19-33.68,4-7.53,1.18-8.72,1.19a14.9,14.9,0,0,1-5.94-4.36q5.94-.39,26.55-3.57,11.47-2,16.24-2.77A2.27,2.27,0,0,1,69.7,13.62ZM33.24,26.7q7.14,2,9.51,4,.39,1.59-.79,5.94c-.26,1.33-.66,2-1.19,2-.53.27-1.19-.13-2-1.18a63,63,0,0,1-6.74-10.31c-.26-.52-.26-.79,0-.79A3.12,3.12,0,0,1,33.24,26.7ZM42.36,3.32q3.16.39,2,.39,9.1,1.2,9.11,1.59c.26.27.4,2.64.4,7.13a2.33,2.33,0,0,1-.4,1.59,1.29,1.29,0,0,1-1.58-.4A116.56,116.56,0,0,1,41.57,4.9c-.54-.52-.8-.92-.8-1.19A2.33,2.33,0,0,1,42.36,3.32Z"/></svg>