<svg id="图层_1" data-name="图层 1" xmlns="http://www.w3.org/2000/svg" viewBox="0 0 99 99"><defs><style>.cls-1{fill:#00078b;opacity:0;}.cls-2{fill:#fff;}</style></defs><rect class="cls-1" y="-0.5" width="99" height="100"/><path class="cls-2" d="M69.49,27.91a9.08,9.08,0,0,1,3.17,3.17c.53.53.66.79.4.79,0,.26-.27.53-.79.79-1.85.27-4.63.79-8.32,1.59q-6,1.19-8.72,2a115,115,0,0,0,9.11,22.58,35.07,35.07,0,0,0,3.17-6.34A27.09,27.09,0,0,0,70.29,41a35.84,35.84,0,0,0,8.32,4.76q-2.39,2.37-5.15,8.32a10.5,10.5,0,0,1-1.59,2.77,54,54,0,0,1-4,7.93A68.71,68.71,0,0,0,83.76,81.4c1.32.79,2.11.53,2.38-.79a78.86,78.86,0,0,1,2.77-9.12c.53-1.32,1-2,1.59-2s.92.79,1.19,2.38a116.72,116.72,0,0,1,2.37,18.62q.39,4.76-4,3.17Q74.65,86.95,64,70.7A42,42,0,0,1,53.64,81.8a15.35,15.35,0,0,1-15.45.39A48.34,48.34,0,0,0,60.38,64.76Q54.83,54.46,49.29,37.42,32.64,41,31.45,41H30.27a172,172,0,0,1-1.59,18.63,81.46,81.46,0,0,0,14.66-4.36,1.26,1.26,0,0,1,2,.39,11,11,0,0,1,3.17,2.78c.53,1.06.26,1.72-.79,2A69.2,69.2,0,0,1,40.17,62c-5.81,1.33-9,2-9.51,2a9.94,9.94,0,0,0-2.38-1.18q-2.37,13.88-6.73,21Q14.8,90.91,4.91,88.53,22.73,78.24,23.53,47.32q.39-8.72-2-13.87A36,36,0,0,1,29.87,37q7.92-2,18.23-4.76a37.68,37.68,0,0,0-1.19-4.35q-4-18.63-7.53-23a30.74,30.74,0,0,0,11.89.8q-1.19,7.92,2,21a24.11,24.11,0,0,0,.39,3.56c-.26-1.05-.13-.79.4.8a92.3,92.3,0,0,1,12.68-3.57C68,27,69,27.11,69.49,27.91Zm-3.17-17h1.19q11.89.8,11.89,1.58,1.18.8,1.19,7.13a3.12,3.12,0,0,1-.4,2,1.28,1.28,0,0,1-1.58-.39,60.59,60.59,0,0,1-13.08-9.11c-.53-.53-.66-.93-.39-1.19C65.14,10.61,65.53,10.61,66.32,10.87Z"/></svg>