<svg id="图层_1" data-name="图层 1" xmlns="http://www.w3.org/2000/svg" viewBox="0 0 99 99"><defs><style>.cls-1{fill:#00078b;opacity:0;}.cls-2{fill:#fff;}</style></defs><rect class="cls-1" y="-0.5" width="99" height="100"/><path class="cls-2" d="M21.81,70.47Q21,79.2,38.45,78.79q26.16-.39,34.08-3.56,2.39-1.58,4.36-15.85c.26-1.85.79-2.9,1.59-3.17.79,0,1.44.93,2,2.77A167.33,167.33,0,0,1,86.4,79.19Q87.59,83.56,84,84q-15.85,2.37-46.75,2-24.59,0-23.38-14.27Q11.9,57,52.32,21.73q-7.12,1.2-26.94,4.76-4,.8-5.55,1.19a33.47,33.47,0,0,1-7.53-7.53q25,.8,40.42-7.13a32.51,32.51,0,0,0,16.64,7.92q-7.94,3.57-18.62,12.68Q21.81,57.4,21.81,70.47Z"/></svg>