<svg id="图层_1" data-name="图层 1" xmlns="http://www.w3.org/2000/svg" viewBox="0 0 99 99"><defs><style>.cls-1{fill:#00078b;opacity:0;}.cls-2{fill:#fff;}</style></defs><rect class="cls-1" y="-0.5" width="99" height="100"/><path class="cls-2" d="M18.59,41.47a44.12,44.12,0,0,0-8.71-4.35c-1.06-.27-1.06-1.06,0-2.38a87.61,87.61,0,0,0,10.3-15.46c.52-.52.92-.79,1.19-.79a1.62,1.62,0,0,1,.79,1.59v.79a6.34,6.34,0,0,0-.4,2q47.16-5.14,53.1-9.51a78,78,0,0,0,15.06,9.91,91.55,91.55,0,0,1-17,7.52c-1.33.54-2.12.67-2.38.4s-.26-.92,0-2a1.12,1.12,0,0,1,.4-.79,40.84,40.84,0,0,0,2.77-7.93Q64.16,21.27,23,28l-1.19-1.58Q20.17,37.11,18.59,41.47ZM43.16,78.72a16.62,16.62,0,0,0-5.94,4.36A106.89,106.89,0,0,1,24.93,93q-7.53,3.95-14.26-2.38,13.08-3.18,20.21-9.51a19.54,19.54,0,0,0,4.36-8.72A27.59,27.59,0,0,0,43.16,78.72Zm17-49.13a12.68,12.68,0,0,1,1.58,2L63,32.76c.53.53.4,1.05-.39,1.58a43.12,43.12,0,0,1-5.55.79q-8.33,1.59-12.28,2a23.14,23.14,0,0,0,5.54.79c-.26,1.58-.66,3.7-1.19,6.34q11.9-2,13.08-4,4.75,4,14.27,6.73a18,18,0,0,0-5.16,8.72c-.53,1.32-1.18,3.31-2,5.94q-4,12.29-5.15,11.49a31.09,31.09,0,0,1-4.36-4.35q-11.1.8-26.15,2.77c0,2.12-.27,3.17-.79,3.17a17.37,17.37,0,0,1-5.55-3.57q-2-17.43-6.74-25h1.59a58.94,58.94,0,0,1,6.74,1.19q7.92-1.19,14.26-2A51.53,51.53,0,0,0,42,37.51a52.84,52.84,0,0,1-8.72,1.19q-2.78-.39-4.75-4,3.57,0,21.79-4c3.7-.79,6.21-1.31,7.53-1.58C58.87,28.66,59.67,28.79,60.2,29.59ZM33.65,56.53A59.18,59.18,0,0,0,42,55.34c-2.91.54-2.38.4,1.59-.39V49.4q-2,.41-6,.79a44.67,44.67,0,0,0-7.53,1.19q2.39,11.88,2.78,15.85a16.26,16.26,0,0,0,2.77-.4L44,65.64V59.7a11.83,11.83,0,0,0-2.77.4,11.83,11.83,0,0,1-2.77.39Q36.82,60.49,33.65,56.53ZM42.76,4.62a40.25,40.25,0,0,1,10.7,3.17c.8,0,.8,2.52,0,7.53-.26,1.33-.66,2-1.19,2-.26.27-.92,0-2-.79A72.8,72.8,0,0,1,41.58,7c-.8-.79-1.06-1.45-.8-2S41.71,4.36,42.76,4.62ZM63,46.23q-2,.41-5.54.79c-3.44.79-6.21,1.33-8.33,1.59V51a17.42,17.42,0,0,0-.39,3.17,49.45,49.45,0,0,0,5.55-1.58,2.26,2.26,0,0,1,2.37.79,12.39,12.39,0,0,1,2.78,4,25,25,0,0,0-3.17.4q-5.16.8-7.53,1.19v5.94A99.08,99.08,0,0,0,59,63.27a2.59,2.59,0,0,1,1.19,1.19q.79-4,2.38-11.1Q63.77,49,64.16,47C64.16,46.23,63.77,46,63,46.23ZM55.05,74.36a128.22,128.22,0,0,1,18.23,8.32c1,.8.92,3.83-.4,9.12-.27,1.84-1.33,2-3.17.39A127,127,0,0,1,53.86,76c-.53-.79-.66-1.32-.4-1.59S54.26,74.1,55.05,74.36Z"/></svg>