<svg id="图层_1" data-name="图层 1" xmlns="http://www.w3.org/2000/svg" viewBox="0 0 99 99"><defs><style>.cls-1{fill:#00078b;opacity:0;}.cls-2{fill:#fff;}</style></defs><rect class="cls-1" y="-0.5" width="99" height="100"/><path class="cls-2" d="M60.93,21a26.73,26.73,0,0,0-3.57,11.49q7.92-1.58,9.51-2.77,4.75,4,13.08,5.15Q76.38,38,77.17,79.62q0,8.31-1.58,9.11-2.78-1.19-8.32-7.93-9.51.4-28.53,2a100.1,100.1,0,0,0-10.7.39c0,4-.14,5.95-.4,5.95-1.85-.54-4.36-2.38-7.53-5.55q2.38-5.94,2.38-25.76-.4-18.23-3.17-23.77a11,11,0,0,1,2.38.39A22.36,22.36,0,0,1,27.24,36a70,70,0,0,0,10.7-.79q.39-9.12-1.19-14.27-10.69,1.19-22.19,3.17A15.65,15.65,0,0,1,8.22,19a1.62,1.62,0,0,1-.39-1.19A1.63,1.63,0,0,1,9,17.4q10.29-.39,42-4Q74.8,10.68,83.91,9.88c1.58,0,2.64.39,3.17,1.18a17.51,17.51,0,0,1,2.38,3.17,10.16,10.16,0,0,0,1.19,1.59,2,2,0,0,1,.39,2,3.09,3.09,0,0,1-2,.4Q73.61,17.81,53,19.38A51.18,51.18,0,0,0,60.93,21ZM28.43,79.22q15.47-2.39,40.42-4.36.39-5.14.4-19.81a27.22,27.22,0,0,1-9.12,1.19q-10.31,0-9.11-11.1a32,32,0,0,1,.4-4.36V38a40.8,40.8,0,0,0-6.34.79c1.84-.52,1.45-.52-1.19,0a64.41,64.41,0,0,1-2,12.68q-4,12.29-13.87,9.91,0,4.76.39,13.07Zm-.39-38V59.8q7.51-5.53,9.51-17l.39-3.17q-2,.4-5.54.8A17,17,0,0,1,28,41.18Zm6.34,22.58c2.63,0,7.39-.65,14.26-2q6-.78,8.32-1.19a2.76,2.76,0,0,1,2.78.8,22.3,22.3,0,0,1,2.77,4q-22.2,3.18-23.77,2.77C37.68,67.86,36.22,66.41,34.38,63.76Zm11.88-41.6q-2,3.57-2,12.28a27,27,0,0,1,4-.79,24.44,24.44,0,0,1,3.56-.4q.39-9.51-.79-13.47-6.74.41-12.68,1.19A25,25,0,0,0,46.26,22.16ZM68.06,36c-3.44.26-7.13.66-11.1,1.19v4a54.62,54.62,0,0,0-.39,5.55q-.41,3.17,2.77,3.56c3.17,0,5-.52,5.55-1.58,1-1.05,2-1.05,2.77,0a4.26,4.26,0,0,1,.79,1.58,2.32,2.32,0,0,1,.8,1.59Q68.44,36,68.06,36Z"/></svg>