<svg id="图层_1" data-name="图层 1" xmlns="http://www.w3.org/2000/svg" viewBox="0 0 99 99"><defs><style>.cls-1{fill:#00078b;opacity:0;}.cls-2{fill:#fff;}</style></defs><rect class="cls-1" y="-0.5" width="99" height="100"/><path class="cls-2" d="M52.27,33.85a31.09,31.09,0,0,0,.4,4,16.68,16.68,0,0,1,.79,4q3.16-.39,9.51-1.58,16.25-2.38,23.78-2.78a3.78,3.78,0,0,1,3.56,1.19c.26.54.66,1.33,1.19,2.38a18,18,0,0,1,1.59,2.38,6.25,6.25,0,0,1,.79,2.37,3.11,3.11,0,0,1-2,.4,322.19,322.19,0,0,0-37.64,2.38Q55.84,66,55.84,73.87q-.8,17-3.17,18.23Q46.73,90.9,34.44,81a3.25,3.25,0,0,1-1.19-2c.26-.53.93-.66,2-.4q11.88,2,11.49-1.58,1.58-9.11-.4-27.34a288.31,288.31,0,0,0-32.49,5.55q-1.2.8-7.93-5.55a2.26,2.26,0,0,1-.79-1.59,2.3,2.3,0,0,1,1.58-.39Q18.19,47.33,45.14,43q-1.59-7.51-3.57-10.3h2a10.43,10.43,0,0,0,2.37.4A144.47,144.47,0,0,0,59.41,14.83a238.82,238.82,0,0,0-29.33,7.53q-3.55-2-6.73-7.14Q47.52,14,61.39,6.9q2.76,4,13.87,9.91Q66.53,19.18,49.9,33.45h1.19A2.92,2.92,0,0,0,52.27,33.85Z"/></svg>